<?xml version="1.0" encoding="UTF-8" standalone="no"?>
<!DOCTYPE svg PUBLIC "-//W3C//DTD SVG 1.1//EN"
 "http://www.w3.org/Graphics/SVG/1.1/DTD/svg11.dtd">
<!-- Generated by graphviz version 2.43.0 (0)
 -->
<!-- Title: %3 Pages: 1 -->
<svg width="1258pt" height="332pt"
 viewBox="0.00 0.00 1257.70 332.00" xmlns="http://www.w3.org/2000/svg" xmlns:xlink="http://www.w3.org/1999/xlink">
<g id="graph0" class="graph" transform="scale(1 1) rotate(0) translate(4 328)">
<title>%3</title>
<polygon fill="white" stroke="transparent" points="-4,4 -4,-328 1253.7,-328 1253.7,4 -4,4"/>
<!-- [root] local_file.pet (expand) -->
<g id="node1" class="node">
<title>[root] local_file.pet (expand)</title>
<polygon fill="none" stroke="black" points="572.5,-180 466.5,-180 466.5,-144 572.5,-144 572.5,-180"/>
<text text-anchor="middle" x="519.5" y="-158.3" font-family="Times,serif" font-size="14.00">local_file.pet</text>
</g>
<!-- [root] provider[&quot;registry.terraform.io/hashicorp/local&quot;] -->
<g id="node2" class="node">
<title>[root] provider[&quot;registry.terraform.io/hashicorp/local&quot;]</title>
<polygon fill="none" stroke="black" points="474.5,-108 144.55,-90 474.5,-72 804.45,-90 474.5,-108"/>
<text text-anchor="middle" x="474.5" y="-86.3" font-family="Times,serif" font-size="14.00">provider[&quot;registry.terraform.io/hashicorp/local&quot;]</text>
</g>
<!-- [root] local_file.pet (expand)&#45;&gt;[root] provider[&quot;registry.terraform.io/hashicorp/local&quot;] -->
<g id="edge1" class="edge">
<title>[root] local_file.pet (expand)&#45;&gt;[root] provider[&quot;registry.terraform.io/hashicorp/local&quot;]</title>
<path fill="none" stroke="black" d="M508.38,-143.7C503.07,-135.44 496.61,-125.39 490.76,-116.3"/>
<polygon fill="black" stroke="black" points="493.54,-114.14 485.19,-107.62 487.65,-117.93 493.54,-114.14"/>
</g>
<!-- [root] random_pet.my&#45;pet (expand) -->
<g id="node4" class="node">
<title>[root] random_pet.my&#45;pet (expand)</title>
<polygon fill="none" stroke="black" points="977,-108 822,-108 822,-72 977,-72 977,-108"/>
<text text-anchor="middle" x="899.5" y="-86.3" font-family="Times,serif" font-size="14.00">random_pet.my&#45;pet</text>
</g>
<!-- [root] local_file.pet (expand)&#45;&gt;[root] random_pet.my&#45;pet (expand) -->
<g id="edge2" class="edge">
<title>[root] local_file.pet (expand)&#45;&gt;[root] random_pet.my&#45;pet (expand)</title>
<path fill="none" stroke="black" d="M572.5,-146.04C575.54,-145.32 578.55,-144.63 581.5,-144 680.45,-122.83 709.02,-125.91 811.86,-108.24"/>
<polygon fill="black" stroke="black" points="812.46,-111.69 821.71,-106.53 811.26,-104.79 812.46,-111.69"/>
</g>
<!-- [root] provider[&quot;registry.terraform.io/hashicorp/random&quot;] -->
<g id="node3" class="node">
<title>[root] provider[&quot;registry.terraform.io/hashicorp/random&quot;]</title>
<polygon fill="none" stroke="black" points="899.5,-36 549.1,-18 899.5,0 1249.9,-18 899.5,-36"/>
<text text-anchor="middle" x="899.5" y="-14.3" font-family="Times,serif" font-size="14.00">provider[&quot;registry.terraform.io/hashicorp/random&quot;]</text>
</g>
<!-- [root] random_pet.my&#45;pet (expand)&#45;&gt;[root] provider[&quot;registry.terraform.io/hashicorp/random&quot;] -->
<g id="edge5" class="edge">
<title>[root] random_pet.my&#45;pet (expand)&#45;&gt;[root] provider[&quot;registry.terraform.io/hashicorp/random&quot;]</title>
<path fill="none" stroke="black" d="M899.5,-71.7C899.5,-63.98 899.5,-54.71 899.5,-46.11"/>
<polygon fill="black" stroke="black" points="903,-46.1 899.5,-36.1 896,-46.1 903,-46.1"/>
</g>
<!-- [root] var.content -->
<g id="node5" class="node">
<title>[root] var.content</title>
<polygon fill="none" stroke="black" points="91,-252 0,-252 0,-216 97,-216 97,-246 91,-252"/>
<polyline fill="none" stroke="black" points="91,-252 91,-246 "/>
<polyline fill="none" stroke="black" points="97,-246 91,-246 "/>
<text text-anchor="middle" x="48.5" y="-230.3" font-family="Times,serif" font-size="14.00">var.content</text>
</g>
<!-- [root] var.filename -->
<g id="node6" class="node">
<title>[root] var.filename</title>
<polygon fill="none" stroke="black" points="213.5,-252 115.5,-252 115.5,-216 219.5,-216 219.5,-246 213.5,-252"/>
<polyline fill="none" stroke="black" points="213.5,-252 213.5,-246 "/>
<polyline fill="none" stroke="black" points="219.5,-246 213.5,-246 "/>
<text text-anchor="middle" x="167.5" y="-230.3" font-family="Times,serif" font-size="14.00">var.filename</text>
</g>
<!-- [root] provider[&quot;registry.terraform.io/hashicorp/local&quot;] (close) -->
<g id="node7" class="node">
<title>[root] provider[&quot;registry.terraform.io/hashicorp/local&quot;] (close)</title>
<ellipse fill="none" stroke="black" cx="533.5" cy="-234" rx="295.95" ry="18"/>
<text text-anchor="middle" x="533.5" y="-230.3" font-family="Times,serif" font-size="14.00">[root] provider[&quot;registry.terraform.io/hashicorp/local&quot;] (close)</text>
</g>
<!-- [root] provider[&quot;registry.terraform.io/hashicorp/local&quot;] (close)&#45;&gt;[root] local_file.pet (expand) -->
<g id="edge3" class="edge">
<title>[root] provider[&quot;registry.terraform.io/hashicorp/local&quot;] (close)&#45;&gt;[root] local_file.pet (expand)</title>
<path fill="none" stroke="black" d="M530.04,-215.7C528.5,-207.98 526.64,-198.71 524.92,-190.11"/>
<polygon fill="black" stroke="black" points="528.31,-189.22 522.92,-180.1 521.45,-190.6 528.31,-189.22"/>
</g>
<!-- [root] provider[&quot;registry.terraform.io/hashicorp/random&quot;] (close) -->
<g id="node8" class="node">
<title>[root] provider[&quot;registry.terraform.io/hashicorp/random&quot;] (close)</title>
<ellipse fill="none" stroke="black" cx="899.5" cy="-162" rx="309.25" ry="18"/>
<text text-anchor="middle" x="899.5" y="-158.3" font-family="Times,serif" font-size="14.00">[root] provider[&quot;registry.terraform.io/hashicorp/random&quot;] (close)</text>
</g>
<!-- [root] provider[&quot;registry.terraform.io/hashicorp/random&quot;] (close)&#45;&gt;[root] random_pet.my&#45;pet (expand) -->
<g id="edge4" class="edge">
<title>[root] provider[&quot;registry.terraform.io/hashicorp/random&quot;] (close)&#45;&gt;[root] random_pet.my&#45;pet (expand)</title>
<path fill="none" stroke="black" d="M899.5,-143.7C899.5,-135.98 899.5,-126.71 899.5,-118.11"/>
<polygon fill="black" stroke="black" points="903,-118.1 899.5,-108.1 896,-118.1 903,-118.1"/>
</g>
<!-- [root] root -->
<g id="node9" class="node">
<title>[root] root</title>
<ellipse fill="none" stroke="black" cx="350.5" cy="-306" rx="58.49" ry="18"/>
<text text-anchor="middle" x="350.5" y="-302.3" font-family="Times,serif" font-size="14.00">[root] root</text>
</g>
<!-- [root] root&#45;&gt;[root] var.content -->
<g id="edge8" class="edge">
<title>[root] root&#45;&gt;[root] var.content</title>
<path fill="none" stroke="black" d="M302.57,-295.64C255.32,-286.18 180.87,-270.64 107.1,-252.06"/>
<polygon fill="black" stroke="black" points="107.72,-248.61 97.16,-249.54 106,-255.39 107.72,-248.61"/>
</g>
<!-- [root] root&#45;&gt;[root] var.filename -->
<g id="edge9" class="edge">
<title>[root] root&#45;&gt;[root] var.filename</title>
<path fill="none" stroke="black" d="M315.22,-291.5C288.69,-281.36 251.88,-267.28 221.64,-255.71"/>
<polygon fill="black" stroke="black" points="222.67,-252.35 212.08,-252.05 220.17,-258.89 222.67,-252.35"/>
</g>
<!-- [root] root&#45;&gt;[root] provider[&quot;registry.terraform.io/hashicorp/local&quot;] (close) -->
<g id="edge6" class="edge">
<title>[root] root&#45;&gt;[root] provider[&quot;registry.terraform.io/hashicorp/local&quot;] (close)</title>
<path fill="none" stroke="black" d="M385.78,-291.5C412.4,-281.32 449.38,-267.18 479.68,-255.59"/>
<polygon fill="black" stroke="black" points="481.17,-258.76 489.26,-251.92 478.67,-252.23 481.17,-258.76"/>
</g>
<!-- [root] root&#45;&gt;[root] provider[&quot;registry.terraform.io/hashicorp/random&quot;] (close) -->
<g id="edge7" class="edge">
<title>[root] root&#45;&gt;[root] provider[&quot;registry.terraform.io/hashicorp/random&quot;] (close)</title>
<path fill="none" stroke="black" d="M409.15,-304.66C522.63,-303.03 767.38,-294.54 838.5,-252 862.37,-237.72 879.07,-210.07 888.89,-189.35"/>
<polygon fill="black" stroke="black" points="892.13,-190.67 893.04,-180.12 885.75,-187.8 892.13,-190.67"/>
</g>
</g>
</svg>
